<?xml version="1.0" encoding="UTF-8" standalone="no"?>
<svg
   version="1.0"
   width="2000.000000pt"
   height="2000.000000pt"
   viewBox="0 0 2000.000000 2000.000000"
   preserveAspectRatio="xMidYMid meet"
   id="svg46"
   sodipodi:docname="logo.svg"
   inkscape:version="1.1.2 (1:1.1+202202050950+0a00cf5339)"
   xmlns:inkscape="http://www.inkscape.org/namespaces/inkscape"
   xmlns:sodipodi="http://sodipodi.sourceforge.net/DTD/sodipodi-0.dtd"
   xmlns="http://www.w3.org/2000/svg"
   xmlns:svg="http://www.w3.org/2000/svg">
  <defs
     id="defs50">
    <rect
       x="1177.1417"
       y="1068.0069"
       width="97.408177"
       height="167.65336"
       id="rect17628" />
    <linearGradient
       id="linearGradient6452"
       inkscape:swatch="solid">
      <stop
         style="stop-color:#aca393;stop-opacity:1;"
         offset="0"
         id="stop6450" />
    </linearGradient>
  </defs>
  <sodipodi:namedview
     id="namedview48"
     pagecolor="#505050"
     bordercolor="#eeeeee"
     borderopacity="1"
     inkscape:pageshadow="0"
     inkscape:pageopacity="0"
     inkscape:pagecheckerboard="0"
     inkscape:document-units="pt"
     showgrid="false"
     inkscape:zoom="0.20175"
     inkscape:cx="1330.855"
     inkscape:cy="1330.855"
     inkscape:window-width="1366"
     inkscape:window-height="713"
     inkscape:window-x="0"
     inkscape:window-y="27"
     inkscape:window-maximized="1"
     inkscape:current-layer="g44" />
  <g
     transform="translate(0.000000,2000.000000) scale(0.100000,-0.100000)"
     fill="#000000"
     stroke="none"
     id="g44">
    <path
       d="M9620 15810 c-809 -68 -1459 -244 -2135 -581 -121 -60 -266 -135 -322 -168 -641 -371 -1246 -904 -1688 -1487 -108 -143 -159 -216 -279 -406 -32 -51 -69 -109 -81 -128 -80 -126 -234 -419 -320 -610 -123 -271 -271 -684 -318 -887 -4 -20 5 -25 117 -63 66 -22 126 -40 132 -40 6 0 24 44 39 98 373 1328 1273 2502 2466 3217 681 408 1416 653 2224 741 202 22 675 30 890 15 889 -61 1689 -313 2452 -772 73 -44 135 -84 138 -89 3 -5 -11 -35 -32 -67 -33 -51 -92 -154 -185 -320 -19 -33 -36 -53 -47 -53 -10 0 -52 22 -92 48 -243 158 -627 346 -919 449 -757 267 -1455 347 -2255 258 -158 -18 -171 -21 -178 -38 -3 -9 27 -275 32 -283 1 -1 20 2 44 6 62 12 321 39 401 42 l70 3 -2 -279 c-1 -154 -3 -280 -5 -281 -1 -1 -47 -5 -102 -8 -55 -3 -161 -15 -235 -26 -477 -71 -873 -197 -1276 -406 -268 -139 -480 -277 -706 -461 -154 -124 -426 -393 -550 -541 -82 -98 -263 -349 -339 -471 -63 -99 -67 -91 73 -167 80 -45 123 -64 126 -55 9 26 193 292 271 391 131 166 305 352 455 486 601 537 1284 844 2106 945 140 17 660 17 800 0 678 -84 1252 -304 1782 -684 394 -282 764 -679 1020 -1092 l48 -76 121 60 120 61 -7 32 c-3 18 -15 43 -26 57 -11 14 -47 70 -82 126 -34 55 -86 132 -114 170 -28 38 -65 88 -82 111 -52 69 -196 232 -309 347 -458 468 -1052 832 -1666 1022 -157 49 -383 103 -535 128 -157 26 -457 56 -562 56 l-58 0 0 280 0 280 79 0 c87 0 290 -14 426 -31 502 -59 1041 -221 1503 -453 432 -216 800 -480 1161 -831 387 -377 695 -801 931 -1280 418 -851 571 -1779 449 -2715 -78 -599 -252 -1123 -559 -1685 -42 -78 -215 -349 -255 -400 -17 -22 -39 -53 -50 -70 -51 -84 -266 -338 -407 -482 -203 -207 -329 -321 -498 -454 -117 -92 -148 -112 -164 -106 -14 6 -106 157 -106 175 0 6 -19 39 -43 74 -24 35 -58 90 -77 123 -18 33 -41 69 -52 81 -18 20 -18 21 29 55 84 60 279 225 382 325 202 193 473 518 464 555 -7 26 -184 159 -211 159 -13 0 -29 -11 -39 -27 -10 -16 -23 -32 -29 -38 -6 -5 -26 -30 -45 -55 -109 -144 -357 -401 -512 -530 -176 -146 -412 -313 -567 -402 -505 -288 -1080 -458 -1644 -487 -915 -47 -1757 210 -2479 756 -248 188 -518 453 -696 684 -40 52 -81 98 -91 103 -25 12 -230 -119 -230 -147 0 -41 240 -329 444 -532 932 -928 2247 -1339 3541 -1110 483 86 958 264 1374 516 34 22 66 39 70 39 3 0 24 -33 47 -73 22 -39 86 -151 142 -249 56 -97 102 -179 102 -182 0 -3 -9 -6 -21 -6 -12 0 -46 -15 -77 -34 -32 -18 -92 -53 -136 -77 -43 -24 -89 -53 -101 -65 l-23 -21 60 -119 c33 -65 63 -122 67 -126 8 -9 243 121 404 223 493 312 946 732 1302 1204 911 1211 1223 2777 850 4265 -157 626 -474 1292 -855 1795 -132 175 -410 488 -541 610 -121 113 -382 331 -419 350 -21 11 -39 22 -39 25 -1 4 209 370 257 450 10 16 80 -34 280 -198 57 -46 105 -83 106 -81 24 27 146 228 146 240 0 29 -278 247 -533 419 -785 526 -1661 839 -2622 935 -187 19 -758 28 -915 15z"
       id="path2"
       style="fill:#ff8534;fill-opacity:1" />
    <path
       d="M8130 14629 c-163 -67 -462 -215 -590 -292 -97 -58 -334 -214 -430 -283 -244 -175 -556 -463 -787 -724 -210 -239 -502 -654 -601 -855 -18 -38 -39 -77 -46 -85 -20 -25 -163 -331 -223 -477 -189 -463 -311 -975 -354 -1480 l-12 -142 -265 -3 -265 -3 7 113 c8 130 41 421 55 484 7 31 7 46 -2 55 -13 13 -193 53 -239 53 -15 0 -28 -4 -28 -9 0 -6 -9 -70 -19 -143 -43 -288 -55 -470 -55 -828 -1 -364 8 -508 50 -818 154 -1150 654 -2234 1430 -3103 140 -157 434 -443 579 -564 811 -677 1743 -1106 2758 -1270 800 -129 1622 -86 2392 125 786 215 1505 588 2135 1108 148 123 192 163 379 346 1409 1384 2012 3404 1605 5381 -76 369 -230 842 -387 1190 -61 135 -181 381 -194 397 -6 7 -40 68 -77 136 -36 68 -77 138 -90 155 -13 18 -44 66 -69 108 -61 104 -194 293 -277 394 -19 23 -79 97 -134 164 -55 68 -105 121 -115 121 -30 0 -231 -139 -231 -160 1 -3 41 -52 91 -110 626 -724 1072 -1667 1243 -2630 59 -333 81 -596 81 -985 -1 -342 -7 -449 -46 -744 -46 -352 -141 -760 -244 -1051 -42 -118 -76 -212 -90 -245 -7 -16 -27 -66 -45 -110 -35 -86 -153 -340 -170 -365 -6 -8 -23 -40 -38 -70 -15 -30 -46 -86 -69 -125 -22 -38 -49 -86 -59 -105 -31 -56 -152 -242 -244 -371 -109 -154 -117 -165 -165 -224 -22 -27 -43 -54 -47 -60 -98 -139 -551 -601 -753 -769 -290 -240 -536 -410 -855 -591 -108 -61 -375 -194 -460 -229 -36 -15 -78 -33 -95 -41 -178 -80 -510 -189 -790 -259 -457 -115 -1028 -170 -1503 -147 -794 39 -1490 220 -2182 566 -555 277 -1020 618 -1458 1069 -256 263 -448 496 -629 764 -68 99 -123 183 -123 186 0 3 -22 40 -48 83 -91 146 -130 218 -230 423 -335 685 -523 1445 -549 2225 l-6 195 49 1 c27 0 146 1 264 2 l215 2 12 -220 c21 -405 68 -717 159 -1065 419 -1595 1603 -2886 3139 -3423 375 -131 686 -201 1099 -249 251 -28 725 -31 976 -5 197 21 426 58 607 98 178 40 428 113 427 125 -9 84 -52 275 -63 279 -7 3 -57 -9 -109 -26 -106 -33 -345 -94 -432 -109 -30 -5 -107 -18 -170 -29 -381 -66 -910 -74 -1311 -21 -506 68 -950 201 -1404 420 -257 124 -440 234 -710 424 -103 72 -114 81 -300 238 -195 164 -519 506 -672 710 -98 131 -154 208 -180 250 -15 24 -41 66 -58 92 -16 27 -53 85 -81 130 -258 413 -483 1030 -574 1569 -53 314 -64 452 -64 812 -1 335 5 424 45 700 116 806 462 1604 973 2244 263 329 630 677 957 908 265 187 679 412 949 517 64 25 116 51 118 59 2 8 -15 61 -37 118 -21 57 -42 112 -45 122 -9 28 -42 20 -196 -44z"
       id="path4"
       style="fill:#dfdfdf;fill-opacity:1" />
    <text
       xml:space="preserve"
       transform="matrix(7.5,0,0,-7.5,0,20000)"
       id="text17626"
       style="fill:black;fill-opacity:1;stroke:none;font-family:sans-serif;font-style:normal;font-weight:normal;font-size:40px;line-height:1.25;letter-spacing:0px;word-spacing:0px;white-space:pre;shape-inside:url(#rect17628)" />
    <text
       xml:space="preserve"
       style="font-style:normal;font-weight:normal;font-size:515.276px;line-height:1.25;font-family:sans-serif;letter-spacing:0px;word-spacing:0px;fill:#ffb380;fill-opacity:1;stroke:none;stroke-width:7.15661"
       x="7115.0977"
       y="-7836.3535"
       id="text20288"
       transform="scale(0.95421415,-1.0479828)"><tspan
         sodipodi:role="line"
         id="tspan20286"
         style="font-size:515.276px;fill:#ffb380;stroke-width:7.15661"
         x="7115.0977"
         y="-7836.3535">English Teaching Refrence</tspan></text>
    <text
       xml:space="preserve"
       style="font-size:1080px;line-height:1.25;font-family:sans-serif;letter-spacing:0px;word-spacing:0px;fill:#e5e5e5;stroke-width:7.5;fill-opacity:1"
       x="6710.7002"
       y="-10214.563"
       id="text29753"
       transform="scale(1,-1)"><tspan
         sodipodi:role="line"
         id="tspan29751"
         style="fill:#e5e5e5;stroke-width:7.5;fill-opacity:1"
         x="6710.7002"
         y="-10214.563">Exir Academy</tspan></text>
  </g>
  <circle
     id="path503"
     style="fill:#ac9d93;stroke:#000000;stroke-width:0.75"
     cx="185.20166"
     cy="845.80127"
     r="1.392658" />
  <circle
     id="path505"
     style="fill:#ac9d93;stroke:#000000;stroke-width:0.75"
     cx="185.20166"
     cy="845.80127"
     r="1.392658" />
  <circle
     id="path507"
     style="fill:#ac9d93;stroke:#000000;stroke-width:0.75"
     cx="234.63185"
     cy="1178.4117"
     r="1.392658" />
  <circle
     id="path509"
     style="fill:#ac9d93;stroke:#000000;stroke-width:0.75"
     cx="234.63185"
     cy="1178.4117"
     r="1.392658" />
</svg>
